<svg version="1.1" xmlns="http://www.w3.org/2000/svg" viewBox="0 0 714 330.70059697628017" width="714" height="330.70059697628017">
  <!-- svg-source:excalidraw -->
  
  <defs>
    <style>
      @font-face {
        font-family: "Virgil";
        src: url("https://excalidraw.com/Virgil.woff2");
      }
      @font-face {
        font-family: "Cascadia";
        src: url("https://excalidraw.com/Cascadia.woff2");
      }
    </style>
  </defs>
  <g stroke-linecap="round" transform="translate(10 133.98154209852214) rotate(0 47 29)"><path d="M-1.97 1.25 C30.12 2.1, 63.74 -0.93, 92.01 -1 M0.75 0.02 C22.68 0.55, 44.29 -0.09, 94.42 -0.69 M95.75 0.87 C95.12 21.19, 94.94 44.51, 92.59 58.03 M94.05 0.4 C93.9 14.87, 94.17 28.96, 94.77 58.25 M94.9 59.03 C73.65 59.69, 51.98 55.88, 1.61 58.31 M94.01 58.58 C69.87 57.45, 46.27 58.4, -0.53 57.7 M-1.93 58.11 C1.6 41.24, -1.47 20.38, 0.34 -1.45 M0.4 57.56 C0.59 42.07, 1 27.28, -0.53 -0.03" stroke="#000000" stroke-width="1" fill="none"></path></g><g transform="translate(39 151.48154209852214) rotate(0 19 12.5)"><text x="19" y="18" font-family="Virgil, Segoe UI Emoji" font-size="20px" fill="#000000" text-anchor="middle" style="white-space: pre;" direction="ltr">Ball</text></g><g stroke-linecap="round" transform="translate(595 167.98154209852214) rotate(0 54.5 32)"><path d="M-1.94 1.25 C22.4 -2.47, 43.57 -1.68, 107.72 -0.73 M0.48 0.29 C29.57 -0.38, 59.78 -0.72, 109.94 -0.42 M110.36 -1.67 C110.74 22.61, 108.15 47.68, 108.13 62.67 M109.29 -0.02 C109.59 13.77, 109.81 29.42, 108.28 63.53 M110.08 65.87 C79.18 62.61, 49.3 64.87, -0.97 64.18 M108.48 63.04 C71.02 64.62, 33.5 64.34, 0.18 63.56 M1.35 65.69 C-1.11 38.73, 0.96 13.43, -0.78 -0.04 M0.58 63.21 C0.73 41.83, -0.78 20.46, 0.31 -0.22" stroke="#000000" stroke-width="1" fill="none"></path></g><g transform="translate(622 189.48154209852214) rotate(0 29.5 12.5)"><text x="29.5" y="18" font-family="Virgil, Segoe UI Emoji" font-size="20px" fill="#000000" text-anchor="middle" style="white-space: pre;" direction="ltr">Water</text></g><g stroke-linecap="round"><g transform="translate(396 74.98154209852214) rotate(0 96.37924388148821 48.63186944349878)"><path d="M0.75 -0.23 C32.44 16.26, 159.15 81.35, 190.93 97.75 M-0.32 -1.39 C31.67 15.29, 161.3 81.91, 193.08 98.66" stroke="#000000" stroke-width="1" fill="none"></path></g><g transform="translate(396 74.98154209852214) rotate(0 96.37924388148821 48.63186944349878)"><path d="M162.95 92.98 C172.08 94.99, 183.57 96.67, 192.52 100.15 M163.22 94.41 C172.76 95.16, 182.28 96.61, 193.8 99.53" stroke="#000000" stroke-width="1" fill="none"></path></g><g transform="translate(396 74.98154209852214) rotate(0 96.37924388148821 48.63186944349878)"><path d="M172.41 74.77 C177.94 83.44, 186 91.72, 192.52 100.15 M172.68 76.2 C179.45 82.48, 186.1 89.44, 193.8 99.53" stroke="#000000" stroke-width="1" fill="none"></path></g></g><g transform="translate(459 61.98154209852214) rotate(0 55.5 12.5)"><text x="0" y="18" font-family="Virgil, Segoe UI Emoji" font-size="20px" fill="#000000" text-anchor="start" style="white-space: pre;" direction="ltr">Pushes out</text></g><g stroke-linecap="round"><g transform="translate(109 152.48154209852214) rotate(0 62.363665705141585 -45.986791018736554)"><path d="M-1.07 -1.19 C19.37 -16.62, 102.63 -77.58, 123.4 -92.77 M0.57 0.79 C21.34 -14.47, 105.47 -76.3, 125.8 -91.63" stroke="#000000" stroke-width="1" fill="none"></path></g><g transform="translate(109 152.48154209852214) rotate(0 62.363665705141585 -45.986791018736554)"><path d="M107.3 -67.58 C114.04 -76.24, 120.74 -83.09, 125.84 -90.67 M109.71 -67.28 C115.69 -75.18, 120.9 -82.13, 126.23 -90.95" stroke="#000000" stroke-width="1" fill="none"></path></g><g transform="translate(109 152.48154209852214) rotate(0 62.363665705141585 -45.986791018736554)"><path d="M95.06 -84.05 C106.2 -86.63, 117.34 -87.52, 125.84 -90.67 M97.47 -83.75 C107.46 -86.19, 116.7 -87.72, 126.23 -90.95" stroke="#000000" stroke-width="1" fill="none"></path></g></g><g transform="translate(60 58.48154209852214) rotate(0 65.5 12.5)"><text x="0" y="18" font-family="Virgil, Segoe UI Emoji" font-size="20px" fill="#000000" text-anchor="start" style="white-space: pre;" direction="ltr">can be MORE</text></g><g stroke-linecap="round" transform="translate(233 33.48154209852214) rotate(0 69.5 41)"><path d="M-1.28 -0.73 C28.73 2.19, 58.62 1.66, 139.58 -0.23 M0.94 -0.42 C37.49 1.84, 73.97 1.65, 138.16 0.59 M138.13 -1.33 C136.98 19.73, 139.22 39.81, 138.96 83.1 M138.28 -0.47 C139.45 18.36, 140.15 36.36, 139.93 82.42 M138.03 82.18 C111.71 82.23, 83.82 81.19, -1.93 81.02 M139.18 81.56 C98.36 80.62, 56.11 82.26, 0.85 81.14 M-0.78 81.96 C0.66 61.12, -1.02 39.81, -1.57 1.97 M0.31 81.78 C-0.39 60.35, 0.59 39.42, 0.72 0.2" stroke="#000000" stroke-width="1" fill="none"></path></g><g transform="translate(268 45.48154209852214) rotate(0 27.5 25)"><text x="27.5" y="18" font-family="Virgil, Segoe UI Emoji" font-size="20px" fill="#000000" text-anchor="middle" style="white-space: pre;" direction="ltr">Heavy</text><text x="27.5" y="43" font-family="Virgil, Segoe UI Emoji" font-size="20px" fill="#000000" text-anchor="middle" style="white-space: pre;" direction="ltr">Ball</text></g><g transform="translate(484 88.92294834852214) rotate(0 28.5 12.5)"><text x="0" y="18" font-family="Virgil, Segoe UI Emoji" font-size="20px" fill="#000000" text-anchor="start" style="white-space: pre;" direction="ltr">MORE</text></g><g stroke-linecap="round"><g transform="translate(392 272.87704991102214) rotate(0 94.12645031958812 -33.333553644986786)"><path d="M-0.33 0.9 C31.23 -9.99, 157.05 -54.52, 188.59 -65.75 M1.69 0.32 C33.16 -10.88, 156.55 -56.64, 187.65 -67.56" stroke="#000000" stroke-width="1" fill="none"></path></g><g transform="translate(392 272.87704991102214) rotate(0 94.12645031958812 -33.333553644986786)"><path d="M166.14 -48.27 C171.11 -52.22, 175.35 -58.05, 188.49 -68.95 M165.51 -47.88 C174.47 -56.91, 183.46 -64.27, 186.95 -67.55" stroke="#000000" stroke-width="1" fill="none"></path></g><g transform="translate(392 272.87704991102214) rotate(0 94.12645031958812 -33.333553644986786)"><path d="M159.15 -67.57 C165.7 -66.94, 171.6 -68.22, 188.49 -68.95 M158.52 -67.17 C170.16 -68.65, 181.9 -68.4, 186.95 -67.55" stroke="#000000" stroke-width="1" fill="none"></path></g></g><g transform="translate(449 261.87704991102214) rotate(0 55.5 12.5)"><text x="0" y="18" font-family="Virgil, Segoe UI Emoji" font-size="20px" fill="#000000" text-anchor="start" style="white-space: pre;" direction="ltr">Pushes out</text></g><g transform="translate(56 256.37704991102214) rotate(0 62 12.5)"><text x="0" y="18" font-family="Virgil, Segoe UI Emoji" font-size="20px" fill="#000000" text-anchor="start" style="white-space: pre;" direction="ltr">can be LESS</text></g><g stroke-linecap="round" transform="translate(229 231.37704991102214) rotate(0 69.5 40.99999999999999)"><path d="M0.58 -0.23 C51.39 0.17, 102.81 1.21, 138.16 1.45 M-0.84 0.59 C53.22 -1.65, 107.68 -1.38, 138.34 -0.72 M138.96 1.1 C137.69 26.59, 139.83 48.65, 138.06 81.63 M139.93 0.42 C138.45 29.09, 139.58 56.08, 139.09 82.44 M137.07 81.02 C97.16 80.23, 54.8 81.65, -0.87 83.67 M139.85 81.14 C110.36 83.11, 81.71 82.55, -0.02 82.4 M-1.57 83.97 C-0.48 53.09, 0.3 26.91, -0.44 -1.64 M0.72 82.2 C0.66 62.02, -0.5 40.69, 0.97 0.95" stroke="#000000" stroke-width="1" fill="none"></path></g><g transform="translate(267.5 243.37704991102214) rotate(0 24 25)"><text x="24" y="18" font-family="Virgil, Segoe UI Emoji" font-size="20px" fill="#000000" text-anchor="middle" style="white-space: pre;" direction="ltr">Light</text><text x="24" y="43" font-family="Virgil, Segoe UI Emoji" font-size="20px" fill="#000000" text-anchor="middle" style="white-space: pre;" direction="ltr">Ball</text></g><g transform="translate(475 289.81845616102214) rotate(0 25 12.5)"><text x="0" y="18" font-family="Virgil, Segoe UI Emoji" font-size="20px" fill="#000000" text-anchor="start" style="white-space: pre;" direction="ltr">LESS</text></g><g stroke-linecap="round"><g transform="translate(109 184.37704991102214) rotate(0 55.507463542935454 40.42665282647591)"><path d="M-0.43 0.5 C17.71 14.05, 90.85 67.74, 109.17 81.13 M1.55 -0.28 C20.04 12.97, 93.62 66.39, 111.44 79.6" stroke="#000000" stroke-width="1" fill="none"></path></g><g transform="translate(109 184.37704991102214) rotate(0 55.507463542935454 40.42665282647591)"><path d="M83.47 69.84 C93.98 73.24, 103.02 78.58, 112.31 80.96 M81.93 71.24 C88.48 72.55, 94.43 75.08, 111.84 79.89" stroke="#000000" stroke-width="1" fill="none"></path></g><g transform="translate(109 184.37704991102214) rotate(0 55.507463542935454 40.42665282647591)"><path d="M95.6 53.28 C102.1 62.09, 107.15 72.88, 112.31 80.96 M94.05 54.69 C98.08 59.5, 101.4 65.61, 111.84 79.89" stroke="#000000" stroke-width="1" fill="none"></path></g></g><g stroke-linecap="round"><g transform="translate(437 10.83347080945964) rotate(0 61.719885434475714 151.9678770610271)"><path d="M0.5 -0.83 C21.21 49.82, 103.57 252.52, 124.13 303.5 M-0.69 1.34 C19.97 52.19, 103.07 254.45, 123.78 304.77" stroke="#a61e4d" stroke-width="4" fill="none"></path></g></g><g stroke-linecap="round"><g transform="translate(567.8631693989039 23.54169995768916) rotate(0 -72.57479844800196 148.91869592238223)"><path d="M-0.83 1.13 C-24.91 50.57, -121.12 247.88, -144.87 297.16 M0.93 0.68 C-23.31 49.75, -122 246.48, -146.08 295.49" stroke="#a61e4d" stroke-width="4" fill="none"></path></g></g></svg>