<svg version="1.1" xmlns="http://www.w3.org/2000/svg" viewBox="0 0 697.5 241" width="697.5" height="241">
  <!-- svg-source:excalidraw -->
  
  <defs>
    <style>
      @font-face {
        font-family: "Virgil";
        src: url("https://excalidraw.com/Virgil.woff2");
      }
      @font-face {
        font-family: "Cascadia";
        src: url("https://excalidraw.com/Cascadia.woff2");
      }
    </style>
  </defs>
  <g stroke-linecap="round" transform="translate(10 98) rotate(0 47 29)"><path d="M-1.94 -0.56 C24.01 -1.21, 47 -1.07, 94.91 0.17 M-0.88 -0.22 C21.42 0.02, 41.21 0.87, 93.03 -0.66 M94.32 -0.76 C92.32 23.88, 95.02 45.8, 93.37 57.02 M94.75 0.1 C94.68 14.74, 93.93 29.04, 93.12 57.59 M93.8 58.02 C74.92 59.87, 51.51 58.94, 1.23 59.38 M94.09 57.31 C62.28 57.74, 29.66 59.61, -0.47 57 M-1.23 57.47 C0.94 47.7, 1.48 33.83, 1.45 -0.75 M-0.42 58.23 C-1.35 38.4, -1.11 19.51, 0.87 0.75" stroke="#000000" stroke-width="1" fill="none"></path></g><g transform="translate(39 115.5) rotate(0 19 12.5)"><text x="19" y="18" font-family="Virgil, Segoe UI Emoji" font-size="20px" fill="#000000" text-anchor="middle" style="white-space: pre;" direction="ltr">Ball</text></g><g stroke-linecap="round"><g transform="translate(116 106) rotate(0 67.6421450353833 -29.379888402675284)"><path d="M-0.34 -0.19 C22.04 -9.76, 111.17 -49.1, 133.49 -58.57 M1.68 -1.33 C24.49 -10.68, 113.25 -47.93, 135.62 -57.55" stroke="#000000" stroke-width="1" fill="none"></path></g><g transform="translate(116 106) rotate(0 67.6421450353833 -29.379888402675284)"><path d="M113.36 -38.95 C117.33 -43.5, 125.01 -46.41, 134.07 -58.72 M114.21 -37 C120.09 -42.42, 126.46 -50.36, 136.48 -57.2" stroke="#000000" stroke-width="1" fill="none"></path></g><g transform="translate(116 106) rotate(0 67.6421450353833 -29.379888402675284)"><path d="M105.35 -57.84 C111.01 -57.97, 120.56 -56.47, 134.07 -58.72 M106.2 -55.89 C114.39 -55.46, 123.24 -57.55, 136.48 -57.2" stroke="#000000" stroke-width="1" fill="none"></path></g></g><g stroke-linecap="round" transform="translate(252.5 10) rotate(0 69.5 41)"><path d="M-1.84 -1.66 C26.55 1.13, 56.66 -1.34, 137.84 0.18 M0.1 -0.55 C30.36 -1.71, 58.15 0.12, 139.35 -0.07 M140.49 0.82 C139.7 25.29, 137.71 50.73, 140.57 82.66 M139.6 -0.52 C139.83 29.84, 138.67 60.66, 138.23 82.23 M140.66 81.29 C99.39 84.49, 59.71 84.08, -1.4 83.43 M138.06 81.79 C97.04 82.02, 52.19 81.57, -0.6 81.38 M1.8 83.13 C0.24 63.9, -0.53 43.69, 1.39 -1.41 M0.1 81.29 C0.72 61.68, 0.56 39.4, 0.8 0.4" stroke="#000000" stroke-width="1" fill="none"></path></g><g transform="translate(295.5 34.5) rotate(0 19.5 12.5)"><text x="19.5" y="18" font-family="Virgil, Segoe UI Emoji" font-size="20px" fill="#000000" text-anchor="middle" style="white-space: pre;" direction="ltr">Size</text></g><g stroke-linecap="round"><g transform="translate(114.50835143642689 139.71064197839905) rotate(0 69.44520327738394 14.363314864893468)"><path d="M-0.99 -1.02 C22.35 3.86, 116.65 23.42, 139.88 28.15 M0.68 1.06 C23.94 6.25, 115.87 25.2, 139.22 29.74" stroke="#000000" stroke-width="1" fill="none"></path></g><g transform="translate(114.50835143642689 139.71064197839905) rotate(0 69.44520327738394 14.363314864893468)"><path d="M107.87 35.15 C118.2 31.65, 125.3 32.11, 137.45 29.31 M110.52 33.27 C119.39 33.67, 130.89 31.15, 139.38 29.36" stroke="#000000" stroke-width="1" fill="none"></path></g><g transform="translate(114.50835143642689 139.71064197839905) rotate(0 69.44520327738394 14.363314864893468)"><path d="M111.92 15.03 C120.91 17.21, 126.86 23.4, 137.45 29.31 M114.57 13.15 C122.03 20.65, 132.09 25.24, 139.38 29.36" stroke="#000000" stroke-width="1" fill="none"></path></g></g><g stroke-linecap="round" transform="translate(255.75 149) rotate(0 69.5 40.99999999999999)"><path d="M0.91 0.17 C27.34 0.01, 57.98 -0.59, 138.57 1.07 M-0.97 -0.66 C44.02 -0.98, 86.24 -1.17, 138.62 -0.94 M138.37 -0.98 C138.21 32.27, 139.99 62.91, 139.2 82.46 M138.12 -0.41 C137.79 28.72, 138.8 58.89, 139.01 82.9 M140.23 83.38 C86.62 81.1, 34.02 82.67, -1.38 82.7 M138.53 81 C109.43 82.7, 81.06 82.69, -0.27 82.3 M1.45 81.25 C0.33 51.42, -1.88 17.22, 0.45 -1.89 M0.87 82.75 C0.36 57.37, 0.98 31.49, 0.56 -0.26" stroke="#000000" stroke-width="1" fill="none"></path></g><g transform="translate(294.75 177.5) rotate(0 30.5 12.5)"><text x="30.5" y="18" font-family="Virgil, Segoe UI Emoji" font-size="20px" fill="#000000" text-anchor="middle" style="white-space: pre;" direction="ltr">Weight</text></g><g stroke-linecap="round" transform="translate(578.5 85) rotate(0 54.5 32)"><path d="M-1.56 -1.16 C23.65 -1.86, 46.5 0.98, 109.21 -1.1 M0.86 0.35 C43.08 0.88, 85.93 -0.23, 109.74 0.41 M107.88 1.57 C109.46 23.92, 109 45.31, 110.19 62.95 M108.22 -0.77 C108.67 23.9, 108.45 48.89, 109.83 63.64 M109.82 62.6 C73.8 64.92, 34.36 65.45, -1.88 63.59 M108.09 63.4 C65.45 62.29, 22.87 63.21, 0.9 64.57 M0.79 65.39 C-1.88 43.88, -0.01 23.54, 0.2 -1.42 M-0.23 64.8 C-0.15 39.31, 0 13.69, 0.44 -0.53" stroke="#000000" stroke-width="1" fill="none"></path></g><g transform="translate(605.5 106.5) rotate(0 29.5 12.5)"><text x="29.5" y="18" font-family="Virgil, Segoe UI Emoji" font-size="20px" fill="#000000" text-anchor="middle" style="white-space: pre;" direction="ltr">Water</text></g><g stroke-linecap="round"><g transform="translate(395 50) rotate(0 86.69752099555456 21.63224699533545)"><path d="M-0.7 0.11 C27.94 7.39, 142.88 35.57, 171.94 42.74 M1.14 -0.88 C30.13 6.67, 145.41 36.58, 174.09 44.14" stroke="#000000" stroke-width="1" fill="none"></path></g><g transform="translate(395 50) rotate(0 86.69752099555456 21.63224699533545)"><path d="M144.41 45.17 C153.02 47.33, 162.87 44.29, 176.01 42.2 M144.15 47.1 C150.82 45.24, 158.95 45.93, 174.6 43.82" stroke="#000000" stroke-width="1" fill="none"></path></g><g transform="translate(395 50) rotate(0 86.69752099555456 21.63224699533545)"><path d="M149.6 25.32 C156.45 33.56, 164.71 36.65, 176.01 42.2 M149.34 27.25 C154.96 30.06, 161.87 35.41, 174.6 43.82" stroke="#000000" stroke-width="1" fill="none"></path></g></g><g transform="translate(148 92) rotate(0 60.5 25)"><text x="0" y="18" font-family="Virgil, Segoe UI Emoji" font-size="20px" fill="#000000" text-anchor="start" style="white-space: pre;" direction="ltr">Can have </text><text x="0" y="43" font-family="Virgil, Segoe UI Emoji" font-size="20px" fill="#000000" text-anchor="start" style="white-space: pre;" direction="ltr">more or less</text></g><g transform="translate(421 21) rotate(0 86.5 12)"><text x="0" y="17" font-family="Virgil, Segoe UI Emoji" font-size="18.901098901098887px" fill="#000000" text-anchor="start" style="white-space: pre;" direction="ltr">Affects pushing of</text></g></svg>