<svg version="1.1" xmlns="http://www.w3.org/2000/svg" viewBox="0 0 676 299.8955078125" width="676" height="299.8955078125">
  <!-- svg-source:excalidraw -->
  
  <defs>
    <style>
      @font-face {
        font-family: "Virgil";
        src: url("https://excalidraw.com/Virgil.woff2");
      }
      @font-face {
        font-family: "Cascadia";
        src: url("https://excalidraw.com/Cascadia.woff2");
      }
    </style>
  </defs>
  <g stroke-linecap="round" transform="translate(10 110.5) rotate(0 47 29)"><path d="M-0.22 -1.37 C25.05 -1.26, 50.77 0.29, 93.89 1.47 M-0.58 -0.38 C35.8 0.08, 69.54 1.04, 94.54 -0.49 M95.35 -1.25 C94.56 17.31, 93.38 32.12, 95.91 59.25 M93.89 -0.08 C94.8 21.37, 95.17 45.18, 93.58 57.8 M95.89 56.69 C63.92 58.03, 35.67 58.18, 1.07 57.47 M93.85 57.26 C57.24 57.98, 19.96 57.92, -0.43 58.04 M1.73 57.65 C-0.87 35.48, -1.44 18.25, -0.01 0.02 M-0.2 57.14 C-1.04 41.55, -0.4 24.89, -0.64 0.85" stroke="#000000" stroke-width="1" fill="none"></path></g><g transform="translate(39 128) rotate(0 19 12.5)"><text x="19" y="18" font-family="Virgil, Segoe UI Emoji" font-size="20px" fill="#000000" text-anchor="middle" style="white-space: pre;" direction="ltr">Ball</text></g><g stroke-linecap="round" transform="translate(557 97.5) rotate(0 54.5 32)"><path d="M-0.36 -1.75 C26.92 0.55, 53.83 2.22, 110.42 -0.37 M0.91 -0.23 C28.86 1.14, 58.73 -0.07, 108.88 0.55 M109.24 0.59 C108.49 14.98, 111.34 33.87, 110.71 64.75 M109.59 -0.98 C109.88 13.82, 108.51 26.47, 109.15 64.85 M108.55 63.6 C72.33 63.05, 34.86 62.76, 1.8 65.22 M108.89 63.14 C65.79 62.28, 23.63 63.23, 0.55 64.38 M-0.65 62.06 C-1.77 39.8, -0.56 12.85, -0.22 0.51 M-0.89 64.31 C-0.13 39.65, -0.51 15.34, 0.7 -0.53" stroke="#000000" stroke-width="1" fill="none"></path></g><g transform="translate(584 119) rotate(0 29.5 12.5)"><text x="29.5" y="18" font-family="Virgil, Segoe UI Emoji" font-size="20px" fill="#000000" text-anchor="middle" style="white-space: pre;" direction="ltr">Water</text></g><g stroke-linecap="round"><g transform="translate(396 51.5) rotate(0 76.4135848164558 29.818597278056735)"><path d="M-1.05 -0.03 C24.73 9.88, 127.89 49.19, 153.88 59.22 M0.6 -1.09 C26.28 9.04, 127.2 50.84, 152.87 60.73" stroke="#000000" stroke-width="1" fill="none"></path></g><g transform="translate(396 51.5) rotate(0 76.4135848164558 29.818597278056735)"><path d="M122.84 59.54 C129.71 61.71, 138.18 60.09, 152.21 59.56 M122.65 60.47 C131.29 59.58, 138.49 60.88, 152.42 61.4" stroke="#000000" stroke-width="1" fill="none"></path></g><g transform="translate(396 51.5) rotate(0 76.4135848164558 29.818597278056735)"><path d="M130.48 40.5 C135.55 47, 142.25 49.79, 152.21 59.56 M130.3 41.43 C137.1 45.51, 142.3 51.79, 152.42 61.4" stroke="#000000" stroke-width="1" fill="none"></path></g></g><g transform="translate(428 11.5) rotate(0 55.5 12.5)"><text x="0" y="18" font-family="Virgil, Segoe UI Emoji" font-size="20px" fill="#000000" text-anchor="start" style="white-space: pre;" direction="ltr">Pushes out</text></g><g stroke-linecap="round"><g transform="translate(109 129) rotate(0 61.62061575975736 -46.443689793986266)"><path d="M-0.12 -0.07 C20.87 -15.25, 104.23 -75.76, 124.88 -91.15 M-1.64 -1.15 C19.36 -16.66, 103.64 -77.8, 124.4 -92.82" stroke="#000000" stroke-width="1" fill="none"></path></g><g transform="translate(109 129) rotate(0 61.62061575975736 -46.443689793986266)"><path d="M107.49 -66.5 C112.59 -73.6, 114.07 -79.67, 123.64 -91 M108.14 -68.46 C112.19 -74.42, 116.5 -81.17, 123.77 -92.7" stroke="#000000" stroke-width="1" fill="none"></path></g><g transform="translate(109 129) rotate(0 61.62061575975736 -46.443689793986266)"><path d="M95.44 -83.11 C103.1 -86.67, 107.14 -89.22, 123.64 -91 M96.09 -85.07 C103.44 -86.52, 111.08 -88.68, 123.77 -92.7" stroke="#000000" stroke-width="1" fill="none"></path></g></g><g transform="translate(60 35) rotate(0 65.5 12.5)"><text x="0" y="18" font-family="Virgil, Segoe UI Emoji" font-size="20px" fill="#000000" text-anchor="start" style="white-space: pre;" direction="ltr">can be MORE</text></g><g stroke-linecap="round" transform="translate(233 10) rotate(0 69.5 40.99999999999999)"><path d="M1.42 -0.37 C39.65 -2.19, 79.86 0.8, 138.53 -0.47 M-0.12 0.55 C51.32 1.35, 102.92 0.8, 139.29 -0.47 M140.71 0.75 C137.95 18.95, 139.61 39.49, 137.05 83.9 M139.15 0.85 C139.1 29.57, 138 57.03, 138.8 82.47 M140.8 83.22 C100.75 81.34, 57.45 81.42, -1.72 80.51 M139.55 82.38 C111.09 82.92, 81 81.73, -0.97 81.39 M-0.22 82.51 C1.74 51.3, -1.72 19.62, 0.62 -0.51 M0.7 81.47 C1.13 53.57, -0.46 26.74, -0.05 -0.19" stroke="#000000" stroke-width="1" fill="none"></path></g><g transform="translate(276.5 22) rotate(0 19 25)"><text x="19" y="18" font-family="Virgil, Segoe UI Emoji" font-size="20px" fill="#000000" text-anchor="middle" style="white-space: pre;" direction="ltr">Big</text><text x="19" y="43" font-family="Virgil, Segoe UI Emoji" font-size="20px" fill="#000000" text-anchor="middle" style="white-space: pre;" direction="ltr">Ball</text></g><g transform="translate(453 41.44140625) rotate(0 28.5 12.5)"><text x="0" y="18" font-family="Virgil, Segoe UI Emoji" font-size="20px" fill="#000000" text-anchor="start" style="white-space: pre;" direction="ltr">MORE</text></g><g stroke-linecap="round"><g transform="translate(371 247.3955078125) rotate(0 89.74273467510943 -54.371691881949126)"><path d="M-0.4 -0.7 C29.44 -18.79, 149.81 -90.51, 179.88 -108.74 M1.6 1.55 C31.16 -16.83, 149.1 -91.87, 178.69 -110.29" stroke="#000000" stroke-width="1" fill="none"></path></g><g transform="translate(371 247.3955078125) rotate(0 89.74273467510943 -54.371691881949126)"><path d="M159.15 -87.34 C169 -95.78, 173.53 -102.67, 179.77 -111.27 M160.99 -87.21 C165.6 -93.04, 170.31 -100.83, 179.65 -109.67" stroke="#000000" stroke-width="1" fill="none"></path></g><g transform="translate(371 247.3955078125) rotate(0 89.74273467510943 -54.371691881949126)"><path d="M148.21 -104.7 C162.09 -106.67, 170.68 -107.11, 179.77 -111.27 M150.05 -104.57 C157.91 -105.35, 165.78 -108.13, 179.65 -109.67" stroke="#000000" stroke-width="1" fill="none"></path></g></g><g transform="translate(433 211.3955078125) rotate(0 55.5 12.5)"><text x="0" y="18" font-family="Virgil, Segoe UI Emoji" font-size="20px" fill="#000000" text-anchor="start" style="white-space: pre;" direction="ltr">Pushes out</text></g><g transform="translate(56 232.8955078125) rotate(0 62 12.5)"><text x="0" y="18" font-family="Virgil, Segoe UI Emoji" font-size="20px" fill="#000000" text-anchor="start" style="white-space: pre;" direction="ltr">can be LESS</text></g><g stroke-linecap="round" transform="translate(229 207.8955078125) rotate(0 69.5 41)"><path d="M-0.47 -0.47 C35.04 -0.19, 66.2 -1.5, 140.1 -0.9 M0.29 -0.47 C50.4 0.79, 102.76 0.69, 139.37 -0.92 M137.05 1.9 C139.91 22.89, 138.54 47.76, 140.71 82.9 M138.8 0.47 C138.34 32.86, 138.2 65.56, 139.61 82.9 M137.28 80.51 C97.5 80.99, 59.76 82.94, 0.75 84 M138.03 81.39 C86 81.54, 31.62 81.44, 0.26 82.87 M0.62 81.49 C1.52 57.75, 2.41 37.46, -1.06 1.21 M-0.05 81.81 C1.35 62.02, 0.8 40.67, 0.63 0.66" stroke="#000000" stroke-width="1" fill="none"></path></g><g transform="translate(267 219.8955078125) rotate(0 24.5 25)"><text x="24.5" y="18" font-family="Virgil, Segoe UI Emoji" font-size="20px" fill="#000000" text-anchor="middle" style="white-space: pre;" direction="ltr">Small</text><text x="24.5" y="43" font-family="Virgil, Segoe UI Emoji" font-size="20px" fill="#000000" text-anchor="middle" style="white-space: pre;" direction="ltr">Ball</text></g><g transform="translate(462 240.3369140625) rotate(0 25 12.5)"><text x="0" y="18" font-family="Virgil, Segoe UI Emoji" font-size="20px" fill="#000000" text-anchor="start" style="white-space: pre;" direction="ltr">LESS</text></g><g stroke-linecap="round"><g transform="translate(109 160.8955078125) rotate(0 55.84182597377338 40.63158001459204)"><path d="M0.87 0.65 C19.15 14, 91.11 66.72, 109.41 79.86 M-0.13 -0.06 C18.57 13.51, 93.42 67.9, 111.82 81.32" stroke="#000000" stroke-width="1" fill="none"></path></g><g transform="translate(109 160.8955078125) rotate(0 55.84182597377338 40.63158001459204)"><path d="M84.06 72.05 C90.71 76.22, 98.02 78.76, 110.56 81.56 M83.94 73.65 C93.3 76.33, 101.02 78.58, 111.73 81.91" stroke="#000000" stroke-width="1" fill="none"></path></g><g transform="translate(109 160.8955078125) rotate(0 55.84182597377338 40.63158001459204)"><path d="M96.14 55.46 C99.41 64.3, 103.37 71.44, 110.56 81.56 M96.02 57.06 C101.32 65.12, 105.06 72.83, 111.73 81.91" stroke="#000000" stroke-width="1" fill="none"></path></g></g></svg>