<?xml version="1.0" encoding="utf-8"?>
<!-- Generator: Adobe Illustrator 16.0.4, SVG Export Plug-In . SVG Version: 6.00 Build 0)  -->
<!DOCTYPE svg PUBLIC "-//W3C//DTD SVG 1.1//EN" "http://www.w3.org/Graphics/SVG/1.1/DTD/svg11.dtd">
<svg version="1.1" id="Layer_1" xmlns="http://www.w3.org/2000/svg" xmlns:xlink="http://www.w3.org/1999/xlink" x="0px" y="0px"
	 width="792px" height="612px" viewBox="0 0 792 612" enable-background="new 0 0 792 612" xml:space="preserve">
<circle fill="#27AAE1" cx="59.108" cy="147.957" r="29.07"/>
<text transform="matrix(1 0 0 1 48.0928 158.5229)" fill="#FFFFFF" font-family="'MyriadPro-Regular'" font-size="36">A</text>
<circle fill="#27AAE1" cx="340.179" cy="103.322" r="29.07"/>
<text transform="matrix(1 0 0 1 329.1631 113.8882)" fill="#FFFFFF" font-family="'MyriadPro-Regular'" font-size="36">F</text>
<circle fill="#27AAE1" cx="288.558" cy="187.593" r="29.07"/>
<text transform="matrix(1 0 0 1 277.5425 198.1587)" fill="#FFFFFF" font-family="'MyriadPro-Regular'" font-size="36">E</text>
<circle fill="#27AAE1" cx="212.977" cy="136.329" r="29.07"/>
<text transform="matrix(1 0 0 1 201.9614 146.895)" fill="#FFFFFF" font-family="'MyriadPro-Regular'" font-size="36">D</text>
<circle fill="#27AAE1" cx="150.023" cy="78.19" r="29.07"/>
<text transform="matrix(1 0 0 1 139.0073 88.7559)" fill="#FFFFFF" font-family="'MyriadPro-Regular'" font-size="36">C</text>
<circle fill="#27AAE1" cx="139.007" cy="198.159" r="29.07"/>
<text transform="matrix(1 0 0 1 127.9917 208.7251)" fill="#FFFFFF" font-family="'MyriadPro-Regular'" font-size="36">B</text>
<g>
	<circle fill="#27AAE1" cx="458.806" cy="147.957" r="29.07"/>
	<text transform="matrix(1 0 0 1 447.791 158.5229)" fill="#FFFFFF" font-family="'MyriadPro-Regular'" font-size="36">A</text>
	<circle fill="#27AAE1" cx="739.876" cy="103.322" r="29.07"/>
	<text transform="matrix(1 0 0 1 728.8613 113.8882)" fill="#FFFFFF" font-family="'MyriadPro-Regular'" font-size="36">F</text>
	<circle fill="#27AAE1" cx="688.256" cy="187.593" r="29.069"/>
	<text transform="matrix(1 0 0 1 677.2402 198.1587)" fill="#FFFFFF" font-family="'MyriadPro-Regular'" font-size="36">E</text>
	<circle fill="#27AAE1" cx="612.675" cy="136.329" r="29.07"/>
	<text transform="matrix(1 0 0 1 601.6592 146.895)" fill="#FFFFFF" font-family="'MyriadPro-Regular'" font-size="36">D</text>
	<circle fill="#27AAE1" cx="549.721" cy="78.19" r="29.07"/>
	<text transform="matrix(1 0 0 1 538.7051 88.7559)" fill="#FFFFFF" font-family="'MyriadPro-Regular'" font-size="36">C</text>
	<circle fill="#27AAE1" cx="538.705" cy="198.159" r="29.07"/>
	<text transform="matrix(1 0 0 1 527.6895 208.7251)" fill="#FFFFFF" font-family="'MyriadPro-Regular'" font-size="36">B</text>
</g>
<g>
	<circle fill="#27AAE1" cx="255.465" cy="466.278" r="29.07"/>
	<text transform="matrix(1 0 0 1 244.4492 476.8438)" fill="#FFFFFF" font-family="'MyriadPro-Regular'" font-size="36">A</text>
	<circle fill="#27AAE1" cx="536.535" cy="421.644" r="29.07"/>
	<text transform="matrix(1 0 0 1 525.5195 432.209)" fill="#FFFFFF" font-family="'MyriadPro-Regular'" font-size="36">F</text>
	<circle fill="#27AAE1" cx="484.915" cy="505.914" r="29.069"/>
	<text transform="matrix(1 0 0 1 473.8984 516.4805)" fill="#FFFFFF" font-family="'MyriadPro-Regular'" font-size="36">E</text>
	<circle fill="#27AAE1" cx="409.334" cy="454.65" r="29.07"/>
	<text transform="matrix(1 0 0 1 398.3184 465.2168)" fill="#FFFFFF" font-family="'MyriadPro-Regular'" font-size="36">D</text>
	<circle fill="#27AAE1" cx="346.379" cy="396.512" r="29.07"/>
	<text transform="matrix(1 0 0 1 335.3638 407.0771)" fill="#FFFFFF" font-family="'MyriadPro-Regular'" font-size="36">C</text>
	<circle fill="#27AAE1" cx="335.364" cy="516.48" r="29.07"/>
	<text transform="matrix(1 0 0 1 324.3481 527.0469)" fill="#FFFFFF" font-family="'MyriadPro-Regular'" font-size="36">B</text>
</g>
<g>
	<path fill="#27AAE1" d="M723.502,275.334c0,2.213-1.774,4.008-3.964,4.008H479.146c-2.189,0-3.965-1.795-3.965-4.008v-26.169
		c0-2.214,1.775-4.009,3.965-4.009h240.393c2.189,0,3.964,1.795,3.964,4.009V275.334z"/>
	<text transform="matrix(1 0 0 1 511.2773 267.5317)" fill="#FFFFFF" font-family="'MyriadPro-Regular'" font-size="18">Competent Practitioner</text>
</g>
<g>
	<path fill="#27AAE1" d="M323.804,275.334c0,2.213-1.774,4.008-3.964,4.008H79.447c-2.189,0-3.965-1.795-3.965-4.008v-26.169
		c0-2.214,1.775-4.009,3.965-4.009H319.84c2.189,0,3.964,1.795,3.964,4.009V275.334z"/>
	<text transform="matrix(1 0 0 1 173.9219 267.5312)" fill="#FFFFFF" font-family="'MyriadPro-Regular'" font-size="18">Novice</text>
</g>
<g>
	<path fill="#27AAE1" d="M520.16,593.753c0,2.213-1.773,4.008-3.963,4.008H275.804c-2.189,0-3.965-1.795-3.965-4.008v-26.169
		c0-2.215,1.775-4.01,3.965-4.01h240.393c2.189,0,3.963,1.795,3.963,4.01V593.753z"/>
	<text transform="matrix(1 0 0 1 371.6377 585.9502)" fill="#FFFFFF" font-family="'MyriadPro-Regular'" font-size="18">Expert</text>
</g>
<g>
	<g>
		
			<line fill="none" stroke="#000000" stroke-width="2" stroke-miterlimit="10" x1="86.189" y1="158.523" x2="108.532" y2="171.104"/>
		<g>
			<path d="M119.049,177.027c-5.983-0.951-13.888-1.275-19.562-0.1l7.665-6.6l1.668-9.975
				C110.757,165.814,115.133,172.405,119.049,177.027z"/>
		</g>
	</g>
</g>
<g>
	<g>
		
			<line fill="none" stroke="#000000" stroke-width="1.575" stroke-miterlimit="10" x1="171.248" y1="97.962" x2="185.152" y2="109.65"/>
		<g>
			<path d="M192.429,115.767c-4.492-1.608-10.562-3.011-15.125-2.929l6.894-3.991l2.745-7.476
				C187.646,105.881,190.072,111.62,192.429,115.767z"/>
		</g>
	</g>
</g>
<g>
	<g>
		
			<line fill="none" stroke="#000000" stroke-width="2" stroke-miterlimit="10" x1="483.365" y1="161.523" x2="505.707" y2="174.104"/>
		<g>
			<path d="M516.225,180.027c-5.982-0.951-13.887-1.275-19.562-0.1l7.666-6.6l1.668-9.975
				C507.934,168.814,512.309,175.405,516.225,180.027z"/>
		</g>
	</g>
</g>
<g>
	<g>
		
			<line fill="none" stroke="#000000" stroke-width="1.575" stroke-miterlimit="10" x1="568.424" y1="100.962" x2="582.328" y2="112.65"/>
		<g>
			<path d="M589.604,118.767c-4.491-1.608-10.562-3.011-15.125-2.929l6.894-3.991l2.746-7.476
				C584.822,108.881,587.248,114.62,589.604,118.767z"/>
		</g>
	</g>
</g>
<g>
	<g>
		
			<line fill="none" stroke="#000000" stroke-width="2" stroke-miterlimit="10" x1="536.667" y1="169.089" x2="545.011" y2="119.165"/>
		<g>
			<path d="M547,107.259c1.143,5.949,3.527,13.493,6.563,18.429l-8.814-4.961l-9.946,1.826
				C539.279,118.872,543.987,112.514,547,107.259z"/>
		</g>
	</g>
</g>
<g>
	<g>
		
			<line fill="none" stroke="#000000" stroke-width="2.1277" stroke-miterlimit="10" x1="636.112" y1="152.053" x2="654.558" y2="161.449"/>
		<g>
			<path d="M666,167.277c-6.401-0.745-14.818-0.739-20.798,0.762l7.854-7.355l1.33-10.676
				C656.688,155.728,661.633,162.539,666,167.277z"/>
		</g>
	</g>
</g>
<g>
	<g>
		
			<line fill="none" stroke="#000000" stroke-width="2.1277" stroke-miterlimit="10" x1="701.126" y1="161.523" x2="717.62" y2="138.783"/>
		<g>
			<path d="M725.16,128.389c-1.733,6.208-3.038,14.522-2.487,20.663l-6.042-8.904l-10.338-2.977
				C712.301,135.787,719.799,131.965,725.16,128.389z"/>
		</g>
	</g>
</g>
<g>
	<g>
		<path fill="none" stroke="#000000" stroke-width="2.1277" stroke-miterlimit="10" d="M564.019,52.882
			c35.259-24.557,113.474-22.601,165.659,13.569"/>
		<g>
			<path d="M739.876,74.252c-6.173-1.854-14.46-3.322-20.61-2.891l9.021-5.867l3.179-10.278
				C732.73,61.251,736.405,68.822,739.876,74.252z"/>
		</g>
	</g>
</g>
<g>
	<g>
		
			<line fill="none" stroke="#000000" stroke-width="2" stroke-miterlimit="10" x1="281.079" y1="478.829" x2="303.421" y2="491.41"/>
		<g>
			<path d="M313.938,497.333c-5.982-0.95-13.887-1.274-19.562-0.1l7.666-6.601l1.668-9.975
				C305.647,486.121,310.022,492.711,313.938,497.333z"/>
		</g>
	</g>
</g>
<g>
	<g>
		
			<line fill="none" stroke="#000000" stroke-width="2.1277" stroke-miterlimit="10" x1="498.84" y1="478.829" x2="515.334" y2="456.09"/>
		<g>
			<path d="M522.874,445.695c-1.733,6.207-3.038,14.521-2.487,20.662l-6.042-8.904l-10.338-2.977
				C510.015,453.094,517.513,449.271,522.874,445.695z"/>
		</g>
	</g>
</g>
<g>
	<g>
		<path fill="none" stroke="#000000" stroke-width="2.1277" stroke-miterlimit="10" d="M361.732,370.188
			c35.236-24.541,98.528-18.264,148.816,18.393"/>
		<g>
			<path d="M520.65,396.511c-6.149-1.929-14.419-3.497-20.573-3.141l9.091-5.757l3.304-10.239
				C513.663,383.424,517.246,391.039,520.65,396.511z"/>
		</g>
	</g>
</g>
<g>
	<g>
		
			<line fill="none" stroke="#000000" stroke-width="2.1277" stroke-miterlimit="10" x1="297.078" y1="461.648" x2="367.438" y2="458.281"/>
		<g>
			<path d="M284.252,462.262c6.143,1.95,13.813,5.413,18.649,9.238l-4.139-9.933l3.172-10.28
				C297.486,455.557,290.18,459.735,284.252,462.262z"/>
		</g>
		<g>
			<path d="M380.264,457.668c-5.928,2.528-13.234,6.707-17.682,10.977l3.172-10.282l-4.139-9.931
				C366.451,452.257,374.122,455.72,380.264,457.668z"/>
		</g>
	</g>
</g>
<g>
	<g>
		
			<line fill="none" stroke="#000000" stroke-width="2.1277" stroke-miterlimit="10" x1="364.434" y1="516.48" x2="443.033" y2="511.195"/>
		<g>
			<path d="M455.846,510.334c-5.878,2.643-13.102,6.962-17.467,11.316l2.974-10.342l-4.331-9.849
				C441.93,505.19,449.667,508.505,455.846,510.334z"/>
		</g>
	</g>
</g>
<g>
	<g>
		
			<line fill="none" stroke="#000000" stroke-width="2.1277" stroke-miterlimit="10" x1="449.487" y1="442.735" x2="494.97" y2="431.961"/>
		<g>
			<path d="M436.992,445.695c6.396,0.789,14.573,2.783,20.029,5.654l-5.895-9.003l1.229-10.688
				C448.769,436.673,442.355,442.123,436.992,445.695z"/>
		</g>
		<g>
			<path d="M507.465,429.001c-5.363,3.574-11.776,9.024-15.364,14.039l1.229-10.69l-5.894-9.001
				C492.893,426.22,501.069,428.214,507.465,429.001z"/>
		</g>
	</g>
</g>
<g>
	<g>
		<path fill="none" stroke="#000000" stroke-width="2.1277" stroke-miterlimit="10" d="M259.488,437.209
			c8.223-30.149,23.954-42.653,48.794-50.701"/>
		<g>
			<path d="M320.639,383.001c-5.181,3.834-11.318,9.593-14.655,14.777l0.702-10.737l-6.329-8.7
				C305.947,380.94,314.212,382.529,320.639,383.001z"/>
		</g>
	</g>
</g>
<g>
	<g>
		<path fill="none" stroke="#000000" stroke-width="2.1277" stroke-miterlimit="10" d="M249.626,441.818
			c14.197-102.717,199.195-146.5,278.755-59.167"/>
		<g>
			<path d="M536.535,392.574c-5.59-3.207-13.328-6.518-19.416-7.494l10.117-3.666l5.43-9.288
				C532.528,378.29,534.389,386.498,536.535,392.574z"/>
		</g>
	</g>
</g>
</svg>
