<svg version="1.1" xmlns="http://www.w3.org/2000/svg" viewBox="0 0 582 344" width="582" height="344">
  <!-- svg-source:excalidraw -->
  
  <defs>
    <style>
      @font-face {
        font-family: "Virgil";
        src: url("https://excalidraw.com/Virgil.woff2");
      }
      @font-face {
        font-family: "Cascadia";
        src: url("https://excalidraw.com/Cascadia.woff2");
      }
    </style>
  </defs>
  <g stroke-linecap="round" transform="translate(10 237) rotate(0 62.5 44)"><path d="M-1.3 -0.26 C36.57 -0.62, 69.14 0, 125.43 -1.3 M0.2 0.42 C34.52 -0.66, 68.35 0.63, 124.84 -0.2 M124.79 -1.18 C123.76 27.83, 125.81 57.09, 123.72 89.5 M124.71 -0.81 C125.18 22.46, 124.73 45.92, 124.27 88.55 M124.75 89.15 C79.87 88.1, 38.48 90.26, -0.41 89.37 M125.56 87.52 C79.66 89.46, 32.24 88.05, 0.17 88.7 M1.43 87.2 C0.07 65.88, -1.32 47.29, -1.99 -1.07 M-0.32 87.87 C-0.57 67.42, -0.14 47.71, -0.8 -0.42" stroke="#000000" stroke-width="1" fill="none"></path></g><g transform="translate(42 270.5) rotate(0 23.5 12.5)"><text x="23.5" y="18" font-family="Virgil, Segoe UI Emoji" font-size="20px" fill="#000000" text-anchor="middle" style="white-space: pre;" direction="ltr">Tree</text></g><g stroke-linecap="round" transform="translate(212 10) rotate(0 73.5 47)"><path d="M-0.5 -1.19 C39.26 -0.72, 78.88 0.14, 145.92 1.71 M-0.5 -0.53 C46.72 -1.52, 95.1 -0.04, 146.57 0.25 M145.6 1.64 C144.73 19.88, 146.92 42.78, 146.88 93.3 M146.65 0.38 C148.48 31.22, 147.87 62.11, 147.35 93.04 M145.16 92.54 C105.23 90.83, 59.98 94.43, -1.87 92.78 M146.1 94.4 C88.52 95.39, 30.43 95.46, 0.18 94.59 M-1.15 92.3 C-0.8 56.1, 0.12 20.78, -0.25 -0.16 M0.53 94.15 C-0.72 74.46, 0.03 56.1, 0.86 -0.96" stroke="#000000" stroke-width="1" fill="none"></path></g><g transform="translate(263.5 44.5) rotate(0 20 12.5)"><text x="20" y="18" font-family="Virgil, Segoe UI Emoji" font-size="20px" fill="#000000" text-anchor="middle" style="white-space: pre;" direction="ltr">Dirt</text></g><g stroke-linecap="round" transform="translate(428 224) rotate(0 72 47)"><path d="M-0.68 1.18 C37.92 -0.09, 76.37 -1.41, 145.68 -0.77 M-0.9 0.98 C52.72 -1.04, 107.54 -1.09, 143.25 -0.42 M144.83 -0.5 C145.17 24.62, 144.08 50.86, 144.76 92.3 M144.25 -0.93 C145.71 27.37, 144.03 56.32, 143.1 94.09 M145.67 94.71 C103.12 93.53, 67.52 92.3, 1.4 94.36 M144.78 93.19 C89.96 95, 36.38 94.59, -0.66 94.34 M1.21 93.6 C-0.37 65.84, -0.82 36.35, 0.18 0.19 M0.7 94.83 C1.07 61.04, -0.41 29.35, -0.19 0.63" stroke="#000000" stroke-width="1" fill="none"></path></g><g transform="translate(489 259) rotate(0 13 12.5)"><text x="13" y="18" font-family="Virgil, Segoe UI Emoji" font-size="20px" fill="#000000" text-anchor="middle" style="white-space: pre;" direction="ltr">Air</text></g><g stroke-linecap="round"><g transform="translate(208 60.530044252909875) rotate(0 -65.37827413441232 86.06861434740009)"><path d="M-0.73 -0.65 C-22.48 27.79, -109.06 142.45, -130.7 171.33 M1.09 1.62 C-20.83 30.2, -109.76 144.59, -131.85 172.79" stroke="#000000" stroke-width="1" fill="none"></path></g><g transform="translate(208 60.530044252909875) rotate(0 -65.37827413441232 86.06861434740009)"><path d="M-123.7 143.61 C-125.3 151.89, -125.79 160.32, -132.49 171.34 M-123.36 143.34 C-124.74 151.35, -127.78 159.18, -131.1 172.43" stroke="#000000" stroke-width="1" fill="none"></path></g><g transform="translate(208 60.530044252909875) rotate(0 -65.37827413441232 86.06861434740009)"><path d="M-107.51 156.23 C-113.76 160.84, -118.82 165.71, -132.49 171.34 M-107.18 155.95 C-113.04 160.37, -120.54 164.72, -131.1 172.43" stroke="#000000" stroke-width="1" fill="none"></path></g></g><g transform="translate(76 120) rotate(0 28 12.5)"><text x="0" y="18" font-family="Virgil, Segoe UI Emoji" font-size="20px" fill="#000000" text-anchor="start" style="white-space: pre;" direction="ltr">Feeds</text></g><g stroke-linecap="round"><g transform="translate(143 303) rotate(0 140.54082014814952 -3.828592811534179)"><path d="M0.46 0.3 C47.4 -0.67, 235.18 -5.08, 281.85 -6.24 M-0.76 -0.58 C46.08 -1.86, 234.65 -6.59, 281.34 -7.96" stroke="#000000" stroke-width="1" fill="none"></path></g><g transform="translate(143 303) rotate(0 140.54082014814952 -3.828592811534179)"><path d="M253.94 4.46 C263.53 -1.45, 271.65 -5.34, 279.7 -9.29 M254.32 3.18 C260.16 -0.3, 266.06 -1.14, 282.27 -8.87" stroke="#000000" stroke-width="1" fill="none"></path></g><g transform="translate(143 303) rotate(0 140.54082014814952 -3.828592811534179)"><path d="M253.39 -16.05 C263.09 -15.5, 271.38 -12.94, 279.7 -9.29 M253.77 -17.34 C259.63 -15.98, 265.65 -11.99, 282.27 -8.87" stroke="#000000" stroke-width="1" fill="none"></path></g></g><g transform="translate(203 309) rotate(0 81 12.5)"><text x="0" y="18" font-family="Virgil, Segoe UI Emoji" font-size="20px" fill="#000000" text-anchor="start" style="white-space: pre;" direction="ltr">Releases Oxygen</text></g><g stroke-linecap="round"><g transform="translate(424 251) rotate(0 -143.96343955628572 7.2119072160124915)"><path d="M-1.03 0.77 C-48.82 3.08, -239.82 12.22, -287.4 14.3 M0.63 0.12 C-47.3 2.02, -240.62 10, -288.55 12.33" stroke="#000000" stroke-width="1" fill="none"></path></g><g transform="translate(424 251) rotate(0 -143.96343955628572 7.2119072160124915)"><path d="M-259.57 0.17 C-267.12 4.29, -275.71 6.72, -289.55 12.35 M-261.64 -0.05 C-270.4 4.61, -278.8 8.71, -289.37 13.27" stroke="#000000" stroke-width="1" fill="none"></path></g><g transform="translate(424 251) rotate(0 -143.96343955628572 7.2119072160124915)"><path d="M-258.66 20.67 C-266.5 19.74, -275.32 17.13, -289.55 12.35 M-260.73 20.45 C-269.91 18.25, -278.61 15.5, -289.37 13.27" stroke="#000000" stroke-width="1" fill="none"></path></g></g><g transform="translate(213 225) rotate(0 78 12.5)"><text x="0" y="18" font-family="Virgil, Segoe UI Emoji" font-size="20px" fill="#000000" text-anchor="start" style="white-space: pre;" direction="ltr">Provides Carbon</text></g><g transform="translate(155 145) rotate(0 21 23)" stroke="none" fill="#000000"><path d="M 2.1393869706514406 0.4247508272725088 Q 2.1393869706514406 0.4247508272725088 2.3996430394718558 1.2275057265444884 2.659899108292271 2.030260625816468 2.3996430394718558 1.2275057265444884 2.1393869706514406 0.4247508272725088 2.3996430394718558 1.2275057265444884 2.659899108292271 2.030260625816468 2.9781333637197083 2.771044751002339 3.296367619147145 3.5118288761882095 3.611278591085754 4.779668726893506 3.9261895630243626 6.047508577598803 4.7533253100879245 8.546934728171337 5.580461057151487 11.046360878743869 5.978014125057842 12.529650687971081 6.375567192964198 14.012940497198292 6.4631170967424065 14.401462285303449 6.5506670005206145 14.789984073408608 7.403957001491383 15.622458652983413 8.257247002462153 16.45493323255822 8.196937804910249 17.49407914711795 8.136628607358343 18.533225061677683 7.895297379861857 18.204088497704223 7.653966152365371 17.874951933730763 8.381335463300946 18.49103549789407 9.10870477423652 19.10711906205738 8.828589919853458 19.44745947721593 8.548475065470397 19.787799892374476 9.430967980825617 21.255972650687415 10.313460896180837 22.724145409000354 9.975140862535717 23.040997797601968 9.636820828890595 23.357850186203585 9.176873010960517 23.41532962695889 8.716925193030436 23.472809067714195 8.31103402421334 23.248960367909 7.905142855396244 23.025111668103808 7.998376086353189 22.624617383496293 8.091609317310134 22.224123098888782 8.377993307122194 21.10918854876349 8.664377296934255 19.994253998638197 9.050649251187554 19.726594854560098 9.436921205440852 19.458935710481995 10.918702736800912 17.610752803530374 12.400484268160971 15.762569896578754 13.906450073976862 14.632231096184112 15.412415879792752 13.501892295789471 16.815250762585894 12.297050890795814 18.218085645379034 11.092209485802158 19.264131900958308 10.561166108382166 20.31017815653758 10.030122730962173 20.602783733577766 10.084445956171226 20.89538931061795 10.13876918138028 21.73438972985806 9.257925006965081 22.57339014909817 8.377080832549883 24.22635016618291 8.080919490219593 25.87931018326765 7.784758147889304 26.152494106399395 8.159226338087791 26.425678029531145 8.53369452828628 26.426581586283426 8.99721913918993 26.427485143035707 9.46074375009358 26.15576320543991 9.836274134959265 25.88404126784412 10.211804519824952 25.961036109363604 10.778834336451533 26.03803095088309 11.345864153078114 26.15418789420326 13.560217735515996 26.270344837523435 15.774571317953878 25.915720170533582 17.894818047403685 25.561095503543733 20.015064776853492 25.52543463418187 22.272988924607297 25.489773764820008 24.530913072361102 25.35592153210584 26.478294322725596 25.22206929939167 28.425675573090093 24.86622292356448 30.076197316049807 24.510376547737284 31.726719059009525 24.38796577226843 33.67129180574962 24.26555499679958 35.615864552489704 23.903927810772494 37.806777297790404 23.542300624745405 39.997690043091104 23.377379837275612 41.636012085149886 23.21245904980582 43.274334127208675 23.221728265299888 43.91393095097039 23.230997480793956 44.5535277747321 24.953711052104815 44.436920106599075 26.676424623415677 44.32031243846604 28.353093381867268 44.01562487786546 30.02976214031886 43.71093731726488 31.827258774486182 43.60546866142641 33.624755408653506 43.500000005587935 35.232177479191904 43.50000000279397 36.83959954973031 43.5 39.41880744647084 43.5 41.998015343211364 43.5 42.604778088992575 43.809161060780646 43.211540834773785 44.11832212156129 43.31807047621394 44.79092380656186 43.424600117654094 45.46352549156242 42.94307047621394 45.945055133002576 42.461540834773785 46.42658477444273 41.78893914977322 46.320055133002576 41.116337464772656 46.21352549156242 40.80717640399201 45.60676274578121 40.498015343211364 45 40.80717640399201 44.39323725421879 41.116337464772656 43.78647450843758 41.78893914977322 43.679944866997424 42.461540834773785 43.57341522555727 42.94307047621394 44.054944866997424 43.424600117654094 44.53647450843758 43.31807047621394 45.20907619343814 43.211540834773785 45.88167787843871 42.604778088992575 46.190838939219354 41.998015343211364 46.5 40.324382036094676 46.5 38.65074872897799 46.5 36.80364435584002 46.500000000000085 34.95653998270205 46.50000000000017 33.3114846197819 46.500667897908386 31.666429256861758 46.5013357958166 30.215023438283225 46.86978703414831 28.76361761970469 47.23823827248002 27.216617714140455 47.36708463709129 25.66961780857622 47.49593100170256 24.063025822533646 47.37724199650438 22.456433836491072 47.2585529913062 21.621999008864215 46.34787153556921 20.787564181237354 45.43719007983221 20.64387396164595 43.975289901623 20.500183742054553 42.513389723413795 20.572748862870487 40.78039717881454 20.64531398368642 39.04740463421529 20.97260197220499 37.21538081455568 21.29988996072356 35.38335699489607 21.40696378430927 33.4895999933765 21.514037607894974 31.59584299185694 21.89989328017576 29.88579984013984 22.28574895245655 28.17575668842274 22.398171652961338 26.31825417644155 22.510594353466125 24.46075166446036 22.568560460117446 21.96915647917492 22.626526566768767 19.47756129388948 22.959340864622668 16.875156084469854 23.292155162476565 14.272750875050228 23.396077558842862 12.462543759152165 23.499999955209162 10.652336643254102 24.39224128886481 9.479827716682024 25.284482622520457 8.307318790109944 25.581896402894053 8.046038468999624 25.87931018326765 7.784758147889304 26.152494106399395 8.159226338087791 26.425678029531145 8.53369452828628 26.426581586283426 8.99721913918993 26.427485143035707 9.46074375009358 26.15576320543991 9.836274134959265 25.88404126784412 10.211804519824952 24.394614904148956 10.616025140980273 22.905188540453793 11.020245762135595 22.909619868238877 11.1926924593951 22.914051196023962 11.365139156654607 21.912035552074133 11.976551494794865 20.910019908124305 12.587963832935126 19.259388737763672 14.048229599272794 17.60875756740304 15.508495365610461 16.003543077109462 16.730141377617883 14.398328586815886 17.951787389625302 13.042715049947002 19.35585899810149 11.68710151307812 20.75993060657768 10.730109127839693 21.480470706289644 9.773116742601268 22.20101080600161 9.922729165812655 22.425657626212843 10.072341589024044 22.650304446424077 10.19290124260244 22.687224927712215 10.313460896180837 22.724145409000357 9.975140862535717 23.04099779760197 9.636820828890595 23.357850186203585 9.176873010960517 23.41532962695889 8.716925193030436 23.472809067714195 8.31103402421334 23.248960367909 7.905142855396244 23.025111668103808 7.897083894871974 22.617129636427965 7.889024934347704 22.209147604752122 7.389976974557717 21.050523009166014 6.89092901476773 19.89189841357991 6.868420395957611 19.996750674295757 6.845911777147492 20.101602935011606 6.382267725529757 18.740116384570864 5.9186236739120215 17.378629834130123 5.902725356370917 17.292794015294696 5.886827038829812 17.20695819645927 5.497302307684464 16.765393277317504 5.1077775765391165 16.32382835817574 4.1138331998482185 14.701646307373043 3.1198888231573205 13.079464256570349 2.511177557169876 11.336230732434668 1.9024662911824313 9.592997208298987 1.3530233760425672 7.5199899055674955 0.8035804609027029 5.446982602836004 0.36054859906831893 3.9191450980241145 -0.08248326276606494 2.3913075932122245 -0.5967091897374088 1.6872929880910412 -1.1109351167087527 0.9832783829698579 -1.293828519090861 0.5628880135693843 -1.4767219214729694 0.14249764416891075 -1.3775865328197674 -0.30510735360943064 -1.2784511441665651 -0.752712351387772 -0.9351533134556449 -1.056562081926976 -0.5918554827447245 -1.3604118124661801 -0.1355233130435506 -1.4044460061727677 0.3208088566576234 -1.4484801998793553 1.230097913654532 -0.5118646863034233 Z"></path></g><g transform="translate(269 223) rotate(0 -34.5 -13.5)" stroke="none" fill="#000000"><path d="M -1.3595430264974357 1.1886819319278605 Q -1.3595430264974357 1.1886819319278605 -2.5692720401521947 0.6406509507235312 -3.7790010538069536 0.09261996951920187 -2.5692720401521947 0.6406509507235312 -1.3595430264974357 1.1886819319278605 -2.5692720401521947 0.6406509507235312 -3.7790010538069536 0.09261996951920187 -5.856606763202496 -0.16359932161607255 -7.934212472598038 -0.41981861275134696 -11.088199479971554 -0.6807867468789317 -14.242186487345068 -0.9417548810065164 -18.61263212454223 -1.631864008585488 -22.983077761739395 -2.3219731361644596 -25.519560879180887 -2.399367355482701 -28.056043996622382 -2.4767615748009417 -31.093124727494654 -2.4868579612156054 -34.13020545836692 -2.4969543476302696 -36.15208314876483 -2.4983368067751917 -38.173960839162746 -2.499719265920114 -39.99254879114977 -2.612423670816389 -41.8111367431368 -2.7251280757126635 -45.35418592593756 -3.2615432331148995 -48.89723510873832 -3.797958390517136 -49.16482427831537 -4.176444741200022 -49.43241344789242 -4.554931091882909 -49.426428938465534 -5.0184179492749 -49.420444429038646 -5.481904806666892 -49.143172119802905 -5.853355944583122 -48.865899810567164 -6.2248070824993516 -48.38205779810197 -6.591646887706336 -47.89821578563678 -6.95848669291332 -46.098758080012075 -8.402901863598164 -44.29930037438737 -9.847317034283009 -42.884369603801844 -11.136116615376164 -41.469438833216316 -12.424916196469319 -39.97388177503397 -13.559927133939958 -38.478324716851624 -14.694938071410597 -36.907078868220474 -15.941237419267653 -35.33583301958932 -17.18753676712471 -33.48047631089819 -18.775354160078003 -31.625119602207057 -20.363171553031297 -31.164682557714606 -20.4165907386039 -30.704245513222155 -20.47000992417651 -30.300345109918936 -20.24258884876862 -29.896444706615718 -20.015167773360726 -29.70335717049377 -19.593773558020104 -29.510269634371824 -19.17237934267948 -30.04069414954248 -18.96369105082408 -30.571118664713143 -18.755002758968683 -32.57070657446025 -18.245932741856514 -34.570294484207366 -17.736862724744345 -36.7239593632217 -18.206999050197407 -38.87762424223604 -18.67713537565047 -42.66317805779773 -19.15961305450481 -46.44873187335942 -19.64209073335915 -49.884722192583595 -20.145655395689943 -53.32071251180776 -20.64922005802073 -55.24431333961796 -21.159040917220622 -57.16791416742815 -21.66886177642051 -59.52580598733182 -22.170268715108833 -61.88369780723549 -22.67167565379716 -64.10741091271436 -23.207954875001114 -66.33112401819324 -23.74423409620507 -68.40974767567887 -25.278787179545887 -70.48837133316451 -26.8133402628867 -70.25701371594837 -27.453820742001433 -70.02565609873226 -28.09430122111617 -69.37150791115786 -28.283593957015086 -68.71735972358346 -28.472886692914 -68.17972002585942 -28.05493317085422 -67.64208032813539 -27.636979648794437 -67.66419514497144 -26.95635308007465 -67.68630996180751 -26.27572651135486 -68.2499471859183 -25.8935555145908 -68.81358441002911 -25.51138451782674 -69.45406488914384 -25.74274213504287 -70.09454536825858 -25.974099752259 -70.2838381041575 -26.628247939833397 -70.47313084005641 -27.282396127407793 -70.05517731799662 -27.820035825131825 -69.63722379593685 -28.357675522855857 -68.95659722721706 -28.3355607060198 -68.27597065849727 -28.31344588918374 -67.89379966173321 -27.74980866507294 -67.51162866496915 -27.18617144096214 -67.6545926273551 -26.6992922754686 -67.79755658974105 -26.212413109975056 -66.44050712999515 -26.28264037362173 -65.08345767024926 -26.352867637268407 -63.107904861002226 -25.963448257337255 -61.13235205175519 -25.574028877406107 -58.74581442986549 -25.065128548997407 -56.35927680797579 -24.55622822058871 -54.55556598395523 -24.073048110337744 -52.751855159934685 -23.58986800008678 -49.362451346694385 -23.09692786772389 -45.97304753345408 -22.603987735360995 -42.044652663640896 -22.08793717889995 -38.116257793827714 -21.5718866224389 -35.43797551716898 -21.086028420513863 -32.75969324051024 -20.60017021858883 -32.19240642135865 -20.48167088581006 -31.625119602207057 -20.363171553031297 -31.164682557714606 -20.4165907386039 -30.704245513222155 -20.47000992417651 -30.300345109918936 -20.24258884876862 -29.896444706615718 -20.015167773360726 -29.70335717049377 -19.593773558020104 -29.510269634371824 -19.17237934267948 -31.558576535227242 -17.05255752841877 -33.60688343608266 -14.932735714158062 -35.17372552849314 -13.603424009944575 -36.740567620903605 -12.274112305731087 -38.53146942917464 -10.815775609140642 -40.32237123744568 -9.357438912550197 -42.2167123733844 -7.564415654046973 -44.11105350932312 -5.771392395543749 -46.02519232241488 -4.911593791915321 -47.939331135506634 -4.051795188286892 -48.418283122122475 -3.9248767894020142 -48.89723510873832 -3.7979583905171364 -49.16482427831537 -4.176444741200022 -49.43241344789242 -4.554931091882909 -49.426428938465534 -5.0184179492749 -49.420444429038646 -5.481904806666892 -49.143172119802905 -5.853355944583122 -48.865899810567164 -6.2248070824993516 -45.26762098968737 -5.968541767290629 -41.669342168807574 -5.712276452081906 -39.91960631259991 -5.605896704259175 -38.169870456392246 -5.499516956436444 -36.14515768123263 -5.498226193829318 -34.12044490607301 -5.496935431222193 -31.03480191248505 -5.485646043620477 -27.949158918897094 -5.47435665601876 -25.253852240656755 -5.380664683205959 -22.558545562416413 -5.286972710393158 -17.502742271028456 -4.60234125019433 -12.4469389796405 -3.917709789995503 -9.675012398595099 -3.6409105053060085 -6.903085817549699 -3.364111220616514 -4.534889636461276 -2.660186447176067 -2.1666934553728536 -1.95626167373562 -1.2851343349052813 -1.7643667382836803 -0.40357521443770894 -1.5724718028317404 0.09710065696196268 -1.5409218868676438 0.5977765283616343 -1.5093719709035474 0.9842872416826915 -1.1895576593300818 1.3707979550037488 -0.8697433477566163 1.4955095547735144 -0.3838228375061969 1.6202211545432803 0.10209767274422255 1.4354980484410775 0.5685192625866271 1.2507749423388748 1.0349408524290316 -0.05438404207928049 1.111811392178446 Z"></path></g><g stroke-linecap="round"><g transform="translate(197 179) rotate(0 0.4270089058623512 -4.074695464083931)"><path d="M0.99 1.08 C1.04 -0.31, 0.81 -5.93, 0.97 -7.41 M0.05 0.6 C-0.12 -1.22, -0.26 -8.07, 0.01 -9.23" stroke="#e67700" stroke-width="1" fill="none"></path></g></g><g stroke-linecap="round"><g transform="translate(203 184) rotate(0 3.810896661430604 -3.8430379559099777)"><path d="M0.73 1.1 C2.12 -0.05, 6.79 -5.5, 7.96 -7.12 M-0.34 0.63 C1 -0.82, 6.24 -7.4, 7.52 -8.78" stroke="#e67700" stroke-width="1" fill="none"></path></g></g><g stroke-linecap="round"><g transform="translate(206 189) rotate(0 7.088835554569982 -0.05894535347817964)"><path d="M0.74 -0.65 C3 -1.09, 12.1 -1.81, 14.5 -1.74 M-0.33 1.62 C1.64 1.25, 10.82 0.04, 13.3 -0.59" stroke="#e67700" stroke-width="1" fill="none"></path></g></g><g stroke-linecap="round" transform="translate(194 189) rotate(0 5.5 5)"><path d="M5.64 -0.97 C6.82 -1.23, 7.92 -0.56, 8.81 0.06 C9.69 0.68, 10.51 1.67, 10.94 2.75 C11.37 3.83, 11.88 5.3, 11.39 6.56 C10.89 7.82, 9.08 9.79, 7.96 10.3 C6.84 10.82, 5.68 10.14, 4.69 9.64 C3.69 9.15, 2.83 8.27, 1.99 7.33 C1.15 6.39, -0.18 4.97, -0.35 3.99 C-0.53 3, 0.09 1.99, 0.94 1.42 C1.78 0.86, 4.03 0.83, 4.74 0.6 C5.46 0.37, 5.11 0.06, 5.22 0.06 M4.12 0.79 C5.07 0.65, 7.4 1.61, 8.67 2.14 C9.94 2.67, 11.53 3.27, 11.75 3.99 C11.98 4.71, 10.51 5.76, 10.02 6.47 C9.52 7.17, 9.86 7.65, 8.78 8.25 C7.71 8.84, 4.77 10.2, 3.57 10.03 C2.37 9.86, 2.27 8.11, 1.6 7.22 C0.93 6.32, -0.51 5.46, -0.46 4.67 C-0.4 3.88, 0.94 3.1, 1.93 2.47 C2.93 1.84, 4.84 1.28, 5.51 0.89 C6.19 0.49, 6.11 0.23, 5.98 0.11" stroke="none" stroke-width="0" fill="#fd7e14"></path><path d="M6.85 0.53 C7.83 0.58, 8.6 1.16, 9.19 1.74 C9.79 2.33, 10.21 3, 10.43 4.01 C10.65 5.02, 11.25 6.96, 10.52 7.8 C9.79 8.64, 7.18 8.91, 6.06 9.06 C4.95 9.21, 4.69 9.1, 3.83 8.69 C2.96 8.28, 1.59 7.66, 0.86 6.63 C0.12 5.59, -0.98 3.47, -0.59 2.48 C-0.19 1.49, 1.84 1, 3.22 0.67 C4.6 0.35, 7.17 0.69, 7.7 0.53 C8.23 0.36, 6.67 -0.2, 6.39 -0.34 M3.16 -0.49 C4.29 -0.76, 5.94 0.82, 6.91 1.37 C7.87 1.92, 8.25 1.84, 8.93 2.8 C9.6 3.76, 11.08 5.89, 10.93 7.14 C10.78 8.39, 8.78 9.79, 8.02 10.28 C7.26 10.77, 7.22 10.43, 6.36 10.07 C5.51 9.7, 4.1 8.67, 2.88 8.1 C1.66 7.54, -0.67 7.42, -0.96 6.68 C-1.25 5.95, 0.23 4.7, 1.14 3.69 C2.06 2.68, 4.21 1.22, 4.52 0.6 C4.84 -0.01, 3.05 0.14, 3.05 -0.02" stroke="#e67700" stroke-width="1" fill="none"></path></g><g stroke-linecap="round"><g transform="translate(187 197) rotate(0 -7.375395706733684 1.4550201365258317)"><path d="M1.12 0.76 C-1.53 1.35, -12.17 2.72, -14.95 2.79 M0.24 0.12 C-2.64 0.44, -13.06 0.76, -15.87 1.08" stroke="#e67700" stroke-width="1" fill="none"></path></g></g><g stroke-linecap="round"><g transform="translate(193 201) rotate(0 -4.068256570845847 3.2137619753926856)"><path d="M0.65 0.26 C-0.65 1.05, -6.37 4.88, -7.55 5.69 M-0.46 -0.64 C-2 0.84, -7.71 5.96, -8.79 7.07" stroke="#e67700" stroke-width="1" fill="none"></path></g></g><g stroke-linecap="round"><g transform="translate(200 204) rotate(0 -0.35257262553716373 6.2923117516003515)"><path d="M0.09 0.96 C0.02 2.85, 0.48 9.2, 0.65 10.76 M-1.32 0.41 C-1.58 2.54, -0.34 10.37, 0.05 12.17" stroke="#e67700" stroke-width="1" fill="none"></path></g></g></svg>