<svg version="1.1" xmlns="http://www.w3.org/2000/svg" viewBox="0 0 582 344" width="582" height="344">
  <!-- svg-source:excalidraw -->
  
  <defs>
    <style>
      @font-face {
        font-family: "Virgil";
        src: url("https://excalidraw.com/Virgil.woff2");
      }
      @font-face {
        font-family: "Cascadia";
        src: url("https://excalidraw.com/Cascadia.woff2");
      }
    </style>
  </defs>
  <g stroke-linecap="round" transform="translate(10 237) rotate(0 62.5 44)"><path d="M-1.3 -0.26 C36.57 -0.62, 69.14 0, 125.43 -1.3 M0.2 0.42 C34.52 -0.66, 68.35 0.63, 124.84 -0.2 M124.79 -1.18 C123.76 27.83, 125.81 57.09, 123.72 89.5 M124.71 -0.81 C125.18 22.46, 124.73 45.92, 124.27 88.55 M124.75 89.15 C79.87 88.1, 38.48 90.26, -0.41 89.37 M125.56 87.52 C79.66 89.46, 32.24 88.05, 0.17 88.7 M1.43 87.2 C0.07 65.88, -1.32 47.29, -1.99 -1.07 M-0.32 87.87 C-0.57 67.42, -0.14 47.71, -0.8 -0.42" stroke="#000000" stroke-width="1" fill="none"></path></g><g transform="translate(42 270.5) rotate(0 23.5 12.5)"><text x="23.5" y="18" font-family="Virgil, Segoe UI Emoji" font-size="20px" fill="#000000" text-anchor="middle" style="white-space: pre;" direction="ltr">Tree</text></g><g stroke-linecap="round" transform="translate(212 10) rotate(0 73.5 47)"><path d="M-0.5 -1.19 C39.26 -0.72, 78.88 0.14, 145.92 1.71 M-0.5 -0.53 C46.72 -1.52, 95.1 -0.04, 146.57 0.25 M145.6 1.64 C144.73 19.88, 146.92 42.78, 146.88 93.3 M146.65 0.38 C148.48 31.22, 147.87 62.11, 147.35 93.04 M145.16 92.54 C105.23 90.83, 59.98 94.43, -1.87 92.78 M146.1 94.4 C88.52 95.39, 30.43 95.46, 0.18 94.59 M-1.15 92.3 C-0.8 56.1, 0.12 20.78, -0.25 -0.16 M0.53 94.15 C-0.72 74.46, 0.03 56.1, 0.86 -0.96" stroke="#000000" stroke-width="1" fill="none"></path></g><g transform="translate(263.5 44.5) rotate(0 20 12.5)"><text x="20" y="18" font-family="Virgil, Segoe UI Emoji" font-size="20px" fill="#000000" text-anchor="middle" style="white-space: pre;" direction="ltr">Dirt</text></g><g stroke-linecap="round" transform="translate(428 224) rotate(0 72 47)"><path d="M-0.68 1.18 C37.92 -0.09, 76.37 -1.41, 145.68 -0.77 M-0.9 0.98 C52.72 -1.04, 107.54 -1.09, 143.25 -0.42 M144.83 -0.5 C145.17 24.62, 144.08 50.86, 144.76 92.3 M144.25 -0.93 C145.71 27.37, 144.03 56.32, 143.1 94.09 M145.67 94.71 C103.12 93.53, 67.52 92.3, 1.4 94.36 M144.78 93.19 C89.96 95, 36.38 94.59, -0.66 94.34 M1.21 93.6 C-0.37 65.84, -0.82 36.35, 0.18 0.19 M0.7 94.83 C1.07 61.04, -0.41 29.35, -0.19 0.63" stroke="#000000" stroke-width="1" fill="none"></path></g><g transform="translate(489 259) rotate(0 13 12.5)"><text x="13" y="18" font-family="Virgil, Segoe UI Emoji" font-size="20px" fill="#000000" text-anchor="middle" style="white-space: pre;" direction="ltr">Air</text></g><g stroke-linecap="round"><g transform="translate(208 60.530044252909875) rotate(0 -65.37827413441232 86.06861434740009)"><path d="M-0.73 -0.65 C-22.48 27.79, -109.06 142.45, -130.7 171.33 M1.09 1.62 C-20.83 30.2, -109.76 144.59, -131.85 172.79" stroke="#000000" stroke-width="1" fill="none"></path></g><g transform="translate(208 60.530044252909875) rotate(0 -65.37827413441232 86.06861434740009)"><path d="M-123.7 143.61 C-125.3 151.89, -125.79 160.32, -132.49 171.34 M-123.36 143.34 C-124.74 151.35, -127.78 159.18, -131.1 172.43" stroke="#000000" stroke-width="1" fill="none"></path></g><g transform="translate(208 60.530044252909875) rotate(0 -65.37827413441232 86.06861434740009)"><path d="M-107.51 156.23 C-113.76 160.84, -118.82 165.71, -132.49 171.34 M-107.18 155.95 C-113.04 160.37, -120.54 164.72, -131.1 172.43" stroke="#000000" stroke-width="1" fill="none"></path></g></g><g transform="translate(45 78) rotate(0 45.5 37.5)"><text x="0" y="18" font-family="Virgil, Segoe UI Emoji" font-size="20px" fill="#000000" text-anchor="start" style="white-space: pre;" direction="ltr">Provides</text><text x="0" y="43" font-family="Virgil, Segoe UI Emoji" font-size="20px" fill="#000000" text-anchor="start" style="white-space: pre;" direction="ltr">other</text><text x="0" y="68" font-family="Virgil, Segoe UI Emoji" font-size="20px" fill="#000000" text-anchor="start" style="white-space: pre;" direction="ltr">Nutrients</text></g><g stroke-linecap="round"><g transform="translate(143 303) rotate(0 140.54082014814952 -3.828592811534179)"><path d="M0.46 0.3 C47.4 -0.67, 235.18 -5.08, 281.85 -6.24 M-0.76 -0.58 C46.08 -1.86, 234.65 -6.59, 281.34 -7.96" stroke="#000000" stroke-width="1" fill="none"></path></g><g transform="translate(143 303) rotate(0 140.54082014814952 -3.828592811534179)"><path d="M253.94 4.46 C263.53 -1.45, 271.65 -5.34, 279.7 -9.29 M254.32 3.18 C260.16 -0.3, 266.06 -1.14, 282.27 -8.87" stroke="#000000" stroke-width="1" fill="none"></path></g><g transform="translate(143 303) rotate(0 140.54082014814952 -3.828592811534179)"><path d="M253.39 -16.05 C263.09 -15.5, 271.38 -12.94, 279.7 -9.29 M253.77 -17.34 C259.63 -15.98, 265.65 -11.99, 282.27 -8.87" stroke="#000000" stroke-width="1" fill="none"></path></g></g><g transform="translate(203 309) rotate(0 81 12.5)"><text x="0" y="18" font-family="Virgil, Segoe UI Emoji" font-size="20px" fill="#000000" text-anchor="start" style="white-space: pre;" direction="ltr">Releases Oxygen</text></g><g stroke-linecap="round"><g transform="translate(424 251) rotate(0 -143.96343955628572 7.2119072160124915)"><path d="M-1.03 0.77 C-48.82 3.08, -239.82 12.22, -287.4 14.3 M0.63 0.12 C-47.3 2.02, -240.62 10, -288.55 12.33" stroke="#000000" stroke-width="2" fill="none"></path></g><g transform="translate(424 251) rotate(0 -143.96343955628572 7.2119072160124915)"><path d="M-259.57 0.17 C-267.12 4.29, -275.71 6.72, -289.55 12.35 M-261.64 -0.05 C-270.4 4.61, -278.8 8.71, -289.37 13.27" stroke="#000000" stroke-width="2" fill="none"></path></g><g transform="translate(424 251) rotate(0 -143.96343955628572 7.2119072160124915)"><path d="M-258.66 20.67 C-266.5 19.74, -275.32 17.13, -289.55 12.35 M-260.73 20.45 C-269.91 18.25, -278.61 15.5, -289.37 13.27" stroke="#000000" stroke-width="2" fill="none"></path></g></g><g transform="translate(213 225) rotate(0 78 12.5)"><text x="0" y="18" font-family="Virgil, Segoe UI Emoji" font-size="20px" fill="#000000" text-anchor="start" style="white-space: pre;" direction="ltr">Provides Carbon</text></g></svg>